<?xml version="1.0" encoding="utf-8"?>
<!-- Generator: Adobe Illustrator 24.3.0, SVG Export Plug-In . SVG Version: 6.00 Build 0)  -->
<svg version="1.1" id="katman_1" xmlns="http://www.w3.org/2000/svg" xmlns:xlink="http://www.w3.org/1999/xlink" x="0px" y="0px"
	 viewBox="0 0 300 75" style="enable-background:new 0 0 300 75;" xml:space="preserve">
<style type="text/css">
	.st0{fill:url(#SVGID_1_);}
	.st1{fill:url(#SVGID_2_);}
	.st2{fill:url(#SVGID_3_);}
	.st3{fill:url(#SVGID_4_);}
	.st4{fill:url(#SVGID_5_);}
	.st5{fill:url(#SVGID_6_);}
	.st6{fill:url(#SVGID_7_);}
	.st7{fill:url(#SVGID_8_);}
	.st8{fill:url(#SVGID_9_);}
	.st9{fill:url(#SVGID_10_);}
	.st10{fill:url(#SVGID_11_);}
	.st11{fill:url(#SVGID_12_);}
	.st12{fill:url(#SVGID_13_);}
	.st13{opacity:0.45;fill:url(#SVGID_14_);}
</style>
<g>
	<linearGradient id="SVGID_1_" gradientUnits="userSpaceOnUse" x1="43.3009" y1="59.0044" x2="16.7341" y2="12.9894">
		<stop  offset="0" style="stop-color:#6BA0D6"/>
		<stop  offset="0.6" style="stop-color:#91D4F5"/>
		<stop  offset="1" style="stop-color:#E5F4FC"/>
	</linearGradient>
	<path class="st0" d="M61.18,23.65c-0.79-4.12-2.87-7.64-6.07-10.64c-1.92-2.03-4.21-3.63-6.9-4.76l-0.02-0.01
		c-7.96-3.59-15.85-3.46-23.67,0.37c0,0-0.04,0.02-0.04,0.02c-1.03,0.45-2,0.97-2.82,1.71c-1.43,0.8-2.58,1.87-3.65,3.03l-0.07,0.08
		c-0.07,0.07-0.15,0.14-0.22,0.22c0,0-0.03,0.03-0.03,0.03c-0.18,0.22-0.37,0.43-0.55,0.65c-0.06,0.07-0.12,0.15-0.18,0.22
		c-0.09,0.1-0.18,0.21-0.28,0.31c0,0,0,0,0,0c-0.25,0.3-0.5,0.61-0.75,0.91l-0.02,0.04c-1,1.26-1.83,2.59-2.37,4.07
		c-0.04,0.1-0.07,0.21-0.11,0.31c-1.11,2.18-1.61,4.49-1.72,6.87c-0.02,0.44-0.05,0.88-0.05,1.32c0,14.1,0,28.2,0,42.3
		c0,2.88,0,2.88,3.23,2.48c0.43-0.06,0.87-0.09,1.3-0.18c7.48-1.53,12.91-5.33,16.05-11.69c0.53-1.2,1.27-2.32,1.4-3.64
		c0.07-0.31,0.02-0.12,0.06-0.34c0.31-1.78,0.63-3.5,0.57-5.29c0-0.5-0.04-0.56-0.05-0.92c0-0.04,0-0.07,0-0.11
		c0.79,0.07,1.58,0.11,2.39,0.11c4.58,0,8.85-1.17,12.49-3.21c5.17-2.56,8.95-6.54,11.18-12.08C61.95,31.85,62.29,27.79,61.18,23.65
		z M36.74,36.26c-4.32,0-7.82-3.15-7.82-7.04c0-3.89,3.5-7.04,7.82-7.04s7.82,3.15,7.82,7.04C44.57,33.11,41.06,36.26,36.74,36.26z"
		/>
	<linearGradient id="SVGID_2_" gradientUnits="userSpaceOnUse" x1="106.4448" y1="26.1242" x2="102.477" y2="19.2518">
		<stop  offset="0" style="stop-color:#182541"/>
		<stop  offset="1" style="stop-color:#1D3158"/>
	</linearGradient>
	<ellipse class="st1" cx="104.46" cy="22.69" rx="4.29" ry="3.86"/>
	<linearGradient id="SVGID_3_" gradientUnits="userSpaceOnUse" x1="244.7443" y1="54.7422" x2="240.7765" y2="47.8698">
		<stop  offset="0" style="stop-color:#6BA0D6"/>
		<stop  offset="0.6" style="stop-color:#91D4F5"/>
		<stop  offset="1" style="stop-color:#E5F4FC"/>
	</linearGradient>
	<ellipse class="st2" cx="242.76" cy="51.31" rx="4.29" ry="3.86"/>
	<g>
		<linearGradient id="SVGID_4_" gradientUnits="userSpaceOnUse" x1="259.3578" y1="54.4431" x2="252.8093" y2="43.1008">
			<stop  offset="0" style="stop-color:#182541"/>
			<stop  offset="1" style="stop-color:#1D3158"/>
		</linearGradient>
		<path class="st3" d="M256.17,55.27c-1.86,0-3.41-0.63-4.65-1.88c-1.24-1.25-1.86-2.8-1.86-4.64s0.62-3.39,1.86-4.64
			c1.24-1.25,2.79-1.88,4.65-1.88c1.2,0,2.3,0.29,3.28,0.86c0.66,0.38,1.21,0.85,1.65,1.41c0.36,0.45,0.22,1.13-0.28,1.42
			l-1.09,0.64c-0.41,0.24-0.91,0.12-1.24-0.23c-0.19-0.2-0.41-0.38-0.66-0.52c-0.5-0.3-1.07-0.44-1.69-0.44
			c-0.95,0-1.74,0.32-2.37,0.95c-0.63,0.63-0.94,1.44-0.94,2.43c0,0.97,0.31,1.77,0.94,2.41c0.63,0.63,1.41,0.95,2.37,0.95
			c0.64,0,1.21-0.14,1.72-0.43c0.25-0.15,0.47-0.32,0.66-0.52c0.32-0.35,0.82-0.47,1.23-0.23l1.08,0.62
			c0.51,0.29,0.66,0.98,0.28,1.44c-0.46,0.56-1.01,1.03-1.67,1.41C258.46,54.97,257.37,55.27,256.17,55.27z"/>
		<linearGradient id="SVGID_5_" gradientUnits="userSpaceOnUse" x1="272.3823" y1="54.4241" x2="265.8291" y2="43.0737">
			<stop  offset="0" style="stop-color:#182541"/>
			<stop  offset="1" style="stop-color:#1D3158"/>
		</linearGradient>
		<path class="st4" d="M273.74,53.38c-1.27,1.26-2.81,1.89-4.64,1.89s-3.37-0.63-4.63-1.89c-1.26-1.26-1.89-2.8-1.89-4.63
			s0.63-3.37,1.89-4.63c1.26-1.26,2.8-1.89,4.63-1.89s3.37,0.63,4.64,1.89c1.27,1.26,1.9,2.8,1.9,4.63S275,52.12,273.74,53.38z
			 M266.72,51.19c0.63,0.64,1.43,0.96,2.38,0.96s1.75-0.32,2.39-0.96c0.64-0.64,0.96-1.46,0.96-2.44c0-0.99-0.32-1.8-0.96-2.44
			c-0.64-0.64-1.44-0.96-2.39-0.96s-1.75,0.32-2.38,0.96c-0.63,0.64-0.95,1.46-0.95,2.44C265.77,49.74,266.08,50.55,266.72,51.19z"
			/>
		<linearGradient id="SVGID_6_" gradientUnits="userSpaceOnUse" x1="291.3179" y1="57.3275" x2="281.7504" y2="40.7561">
			<stop  offset="0" style="stop-color:#182541"/>
			<stop  offset="1" style="stop-color:#1D3158"/>
		</linearGradient>
		<path class="st5" d="M291.53,42.24c1.41,0,2.55,0.46,3.39,1.38c0.85,0.92,1.27,2.16,1.27,3.7v6.64c0,0.53-0.43,0.96-0.96,0.96
			h-1.26c-0.53,0-0.96-0.43-0.96-0.96v-6.41c0-0.74-0.18-1.32-0.54-1.73c-0.36-0.41-0.87-0.62-1.53-0.62
			c-0.72,0-1.29,0.24-1.69,0.72c-0.4,0.48-0.6,1.17-0.6,2.07v5.97c0,0.53-0.43,0.96-0.96,0.96h-1.26c-0.53,0-0.96-0.43-0.96-0.96
			v-6.41c0-0.74-0.18-1.32-0.54-1.73c-0.36-0.41-0.87-0.62-1.53-0.62c-0.71,0-1.27,0.24-1.69,0.72c-0.42,0.48-0.63,1.17-0.63,2.07
			v5.97c0,0.53-0.43,0.96-0.96,0.96h-1.26c-0.53,0-0.96-0.43-0.96-0.96V43.55c0-0.53,0.43-0.96,0.96-0.96h2.22v1.31
			c0.74-1.1,1.88-1.65,3.43-1.65c1.12,0,2.02,0.32,2.7,0.97c0.38,0.36,0.95,0.38,1.35,0.03C289.31,42.57,290.31,42.24,291.53,42.24z
			"/>
	</g>
	<g>
		<linearGradient id="SVGID_7_" gradientUnits="userSpaceOnUse" x1="88.2211" y1="48.8192" x2="71.067" y2="19.1075">
			<stop  offset="0" style="stop-color:#182541"/>
			<stop  offset="1" style="stop-color:#1D3158"/>
		</linearGradient>
		<path class="st6" d="M84.31,18.83c3.5,0,6.45,1.18,8.84,3.54c2.39,2.36,3.59,5.25,3.59,8.69c0,3.43-1.2,6.33-3.59,8.69
			c-2.39,2.36-5.34,3.54-8.84,3.54h-5.29c-0.61,0-1.11,0.5-1.11,1.11v9.75c0,0.61-0.5,1.11-1.11,1.11h-4.96
			c-0.61,0-1.11-0.5-1.11-1.11V19.94c0-0.61,0.5-1.11,1.11-1.11H84.31z M84.31,36.57c1.53,0,2.79-0.53,3.8-1.59
			c1.01-1.06,1.51-2.37,1.51-3.93c0-1.6-0.5-2.91-1.51-3.95c-1.01-1.04-2.27-1.56-3.8-1.56h-5.29c-0.61,0-1.11,0.5-1.11,1.11v8.81
			c0,0.61,0.5,1.11,1.11,1.11H84.31z"/>
		<linearGradient id="SVGID_8_" gradientUnits="userSpaceOnUse" x1="110.7273" y1="53.0917" x2="98.1945" y2="31.3842">
			<stop  offset="0" style="stop-color:#182541"/>
			<stop  offset="1" style="stop-color:#1D3158"/>
		</linearGradient>
		<path class="st7" d="M101.11,54.13V30.34c0-0.61,0.5-1.11,1.11-1.11h4.5c0.61,0,1.11,0.5,1.11,1.11v23.79
			c0,0.61-0.5,1.11-1.11,1.11h-4.5C101.6,55.24,101.11,54.74,101.11,54.13z"/>
		<linearGradient id="SVGID_9_" gradientUnits="userSpaceOnUse" x1="132.4314" y1="58.1566" x2="114.9036" y2="27.7976">
			<stop  offset="0" style="stop-color:#182541"/>
			<stop  offset="1" style="stop-color:#1D3158"/>
		</linearGradient>
		<path class="st8" d="M131.71,29.24h4.8c0.77,0,1.3,0.76,1.04,1.49l-8.94,24.56c-1.35,3.71-3.14,6.41-5.38,8.1
			c-1.99,1.5-4.4,2.26-7.25,2.29c-0.6,0.01-1.09-0.51-1.09-1.11v-4.08c0-0.57,0.43-1.05,0.99-1.1c1.34-0.1,2.44-0.47,3.3-1.12
			c0.97-0.73,1.76-1.87,2.36-3.42c0.11-0.27,0.1-0.58-0.02-0.85l-9.83-23.22c-0.31-0.73,0.23-1.54,1.02-1.54h4.9
			c0.46,0,0.87,0.28,1.03,0.71l5.39,13.89c0.38,0.97,1.76,0.93,2.08-0.05L130.66,30C130.81,29.54,131.23,29.24,131.71,29.24z"/>
		<linearGradient id="SVGID_10_" gradientUnits="userSpaceOnUse" x1="163.4482" y1="56.6453" x2="147.4704" y2="28.9709">
			<stop  offset="0" style="stop-color:#182541"/>
			<stop  offset="1" style="stop-color:#1D3158"/>
		</linearGradient>
		<path class="st9" d="M161.09,29.24h4.5c0.61,0,1.11,0.5,1.11,1.11v23.79c0,0.61-0.5,1.11-1.11,1.11h-4.5
			c-0.61,0-1.11-0.5-1.11-1.11v-1.96c-2.01,2.53-4.84,3.8-8.48,3.8c-3.47,0-6.44-1.33-8.92-3.98c-2.48-2.65-3.72-5.9-3.72-9.75
			s1.24-7.1,3.72-9.75c2.48-2.65,5.45-3.98,8.92-3.98c3.64,0,6.47,1.27,8.48,3.8v-1.96C159.98,29.73,160.48,29.24,161.09,29.24z
			 M147.6,47.52c1.35,1.37,3.07,2.05,5.15,2.05c2.08,0,3.8-0.68,5.17-2.05c1.37-1.37,2.05-3.13,2.05-5.28
			c0-2.15-0.69-3.91-2.05-5.28c-1.37-1.37-3.09-2.05-5.17-2.05c-2.08,0-3.8,0.69-5.15,2.05c-1.35,1.37-2.03,3.13-2.03,5.28
			C145.58,44.39,146.25,46.15,147.6,47.52z"/>
		<linearGradient id="SVGID_11_" gradientUnits="userSpaceOnUse" x1="188.3598" y1="54.349" x2="174.6715" y2="30.6401">
			<stop  offset="0" style="stop-color:#182541"/>
			<stop  offset="1" style="stop-color:#1D3158"/>
		</linearGradient>
		<path class="st10" d="M178.76,36.62c0,0.69,0.46,1.26,1.38,1.69c0.92,0.43,2.04,0.81,3.36,1.14c1.32,0.33,2.64,0.74,3.95,1.25
			s2.44,1.34,3.36,2.52c0.92,1.18,1.38,2.65,1.38,4.42c0,2.67-1,4.73-2.99,6.16c-2,1.44-4.48,2.16-7.46,2.16
			c-4.88,0-8.34-1.72-10.38-5.16c-0.32-0.54-0.15-1.25,0.4-1.56l3.83-2.16c0.54-0.3,1.2-0.09,1.51,0.44
			c0.9,1.57,2.44,2.35,4.64,2.35c2.39,0,3.59-0.74,3.59-2.24c0-0.69-0.46-1.26-1.38-1.69c-0.92-0.43-2.04-0.82-3.35-1.17
			c-1.32-0.35-2.64-0.78-3.95-1.3c-1.32-0.52-2.44-1.34-3.36-2.47c-0.92-1.13-1.38-2.54-1.38-4.24c0-2.57,0.94-4.59,2.84-6.06
			c1.89-1.47,4.24-2.21,7.05-2.21c2.11,0,4.04,0.48,5.77,1.43c1.36,0.75,2.5,1.75,3.41,3.01c0.4,0.55,0.24,1.32-0.36,1.65
			l-3.73,2.04c-0.49,0.27-1.1,0.12-1.42-0.33c-0.85-1.21-2.07-1.81-3.68-1.81c-0.87,0-1.59,0.19-2.16,0.57
			C179.04,35.44,178.76,35.96,178.76,36.62z"/>
		<linearGradient id="SVGID_12_" gradientUnits="userSpaceOnUse" x1="219.3594" y1="56.6453" x2="203.3815" y2="28.9709">
			<stop  offset="0" style="stop-color:#182541"/>
			<stop  offset="1" style="stop-color:#1D3158"/>
		</linearGradient>
		<path class="st11" d="M217,29.24h4.5c0.61,0,1.11,0.5,1.11,1.11v23.79c0,0.61-0.5,1.11-1.11,1.11H217c-0.61,0-1.11-0.5-1.11-1.11
			v-1.96c-2.01,2.53-4.84,3.8-8.48,3.8c-3.47,0-6.44-1.33-8.92-3.98c-2.48-2.65-3.72-5.9-3.72-9.75s1.24-7.1,3.72-9.75
			c2.48-2.65,5.45-3.98,8.92-3.98c3.64,0,6.47,1.27,8.48,3.8v-1.96C215.89,29.73,216.39,29.24,217,29.24z M203.51,47.52
			c1.35,1.37,3.07,2.05,5.15,2.05c2.08,0,3.8-0.68,5.17-2.05c1.37-1.37,2.05-3.13,2.05-5.28c0-2.15-0.69-3.91-2.05-5.28
			c-1.37-1.37-3.09-2.05-5.17-2.05c-2.08,0-3.8,0.69-5.15,2.05c-1.35,1.37-2.03,3.13-2.03,5.28
			C201.49,44.39,202.16,46.15,203.51,47.52z"/>
		<linearGradient id="SVGID_13_" gradientUnits="userSpaceOnUse" x1="240.8992" y1="51.5964" x2="223.1864" y2="20.917">
			<stop  offset="0" style="stop-color:#182541"/>
			<stop  offset="1" style="stop-color:#1D3158"/>
		</linearGradient>
		<path class="st12" d="M228.69,54.13V18.38c0-0.61,0.5-1.11,1.11-1.11h4.5c0.61,0,1.11,0.5,1.11,1.11v35.75
			c0,0.61-0.5,1.11-1.11,1.11h-4.5C229.18,55.24,228.69,54.74,228.69,54.13z"/>
	</g>
	<linearGradient id="SVGID_14_" gradientUnits="userSpaceOnUse" x1="37.9583" y1="54.6186" x2="11.3915" y2="8.6036">
		<stop  offset="0" style="stop-color:#6BA0D6"/>
		<stop  offset="0.6" style="stop-color:#91D4F5"/>
		<stop  offset="1" style="stop-color:#E5F4FC"/>
	</linearGradient>
	<path class="st13" d="M55.83,19.26c-0.79-4.12-2.87-7.64-6.07-10.64c-1.92-2.03-4.21-3.63-6.9-4.76l-0.02-0.01
		C34.88,0.26,26.99,0.4,19.17,4.23c0,0-0.04,0.02-0.04,0.02c-1.03,0.45-2,0.97-2.82,1.71c-1.43,0.8-2.58,1.87-3.65,3.03
		c0,0-0.07,0.08-0.07,0.08c-0.07,0.07-0.15,0.14-0.22,0.22c0,0-0.03,0.03-0.03,0.03c-0.18,0.22-0.37,0.43-0.55,0.65
		c-0.06,0.07-0.12,0.15-0.18,0.22c-0.09,0.1-0.18,0.21-0.28,0.31c0,0,0,0,0,0c-0.25,0.3-0.5,0.61-0.75,0.91l-0.02,0.04
		c-1,1.26-1.83,2.59-2.37,4.07c-0.04,0.1-0.07,0.21-0.11,0.31C6.97,18,6.48,20.31,6.37,22.69c-0.02,0.44-0.05,0.88-0.05,1.32
		c0,14.1,0,28.2,0,42.3c0,2.88,0,2.88,3.23,2.48c0.43-0.06,0.87-0.09,1.3-0.18c7.48-1.53,12.91-5.33,16.05-11.69
		c0.53-1.2,1.27-2.32,1.4-3.64c0.07-0.31,0.02-0.12,0.06-0.34c0.31-1.78,0.63-3.5,0.57-5.29c0-0.5-0.04-0.56-0.05-0.92
		c0-0.04,0-0.07,0-0.11c0.79,0.07,1.58,0.11,2.39,0.11c4.58,0,8.85-1.17,12.49-3.21c5.17-2.56,8.95-6.54,11.18-12.08
		C56.61,27.46,56.95,23.41,55.83,19.26z M36.74,36.26c-4.32,0-7.82-3.15-7.82-7.04c0-3.89,3.5-7.04,7.82-7.04s7.82,3.15,7.82,7.04
		C44.57,33.11,41.06,36.26,36.74,36.26z"/>
</g>
</svg>
