<?xml version="1.0" encoding="utf-8"?>
<!-- Generator: Adobe Illustrator 24.3.0, SVG Export Plug-In . SVG Version: 6.00 Build 0)  -->
<svg version="1.1" id="katman_1" xmlns="http://www.w3.org/2000/svg" xmlns:xlink="http://www.w3.org/1999/xlink" x="0px" y="0px"
	 viewBox="0 0 67.68 75" style="enable-background:new 0 0 67.68 75;" xml:space="preserve">
<style type="text/css">
	.st0{fill:url(#SVGID_1_);}
	.st1{opacity:0.45;fill:url(#SVGID_2_);}
</style>
<linearGradient id="SVGID_1_" gradientUnits="userSpaceOnUse" x1="43.3009" y1="59.0044" x2="16.7341" y2="12.9894">
	<stop  offset="0" style="stop-color:#6BA0D6"/>
	<stop  offset="0.6" style="stop-color:#91D4F5"/>
	<stop  offset="1" style="stop-color:#E5F4FC"/>
</linearGradient>
<path class="st0" d="M61.18,23.65c-0.79-4.12-2.87-7.64-6.07-10.64c-1.92-2.03-4.21-3.63-6.9-4.76l-0.02-0.01
	c-7.96-3.59-15.85-3.46-23.67,0.37c0,0-0.04,0.02-0.04,0.02c-1.03,0.45-2,0.97-2.82,1.71c-1.43,0.8-2.58,1.87-3.65,3.03l-0.07,0.08
	c-0.07,0.07-0.15,0.14-0.22,0.22c0,0-0.03,0.03-0.03,0.03c-0.18,0.22-0.37,0.43-0.55,0.65c-0.06,0.07-0.12,0.15-0.18,0.22
	c-0.09,0.1-0.18,0.21-0.28,0.31c0,0,0,0,0,0c-0.25,0.3-0.5,0.61-0.75,0.91l-0.02,0.04c-1,1.26-1.83,2.59-2.37,4.07
	c-0.04,0.1-0.07,0.21-0.11,0.31c-1.11,2.18-1.61,4.49-1.72,6.87c-0.02,0.44-0.05,0.88-0.05,1.32c0,14.1,0,28.2,0,42.3
	c0,2.88,0,2.88,3.23,2.48c0.43-0.06,0.87-0.09,1.3-0.18c7.48-1.53,12.91-5.33,16.05-11.69c0.53-1.2,1.27-2.32,1.4-3.64
	c0.07-0.31,0.02-0.12,0.06-0.34c0.31-1.78,0.63-3.5,0.57-5.29c0-0.5-0.04-0.56-0.05-0.92c0-0.04,0-0.07,0-0.11
	c0.79,0.07,1.58,0.11,2.39,0.11c4.58,0,8.85-1.17,12.49-3.21c5.17-2.56,8.95-6.54,11.18-12.08C61.95,31.85,62.29,27.79,61.18,23.65z
	 M36.74,36.26c-4.32,0-7.82-3.15-7.82-7.04c0-3.89,3.5-7.04,7.82-7.04s7.82,3.15,7.82,7.04C44.57,33.11,41.06,36.26,36.74,36.26z"/>
<linearGradient id="SVGID_2_" gradientUnits="userSpaceOnUse" x1="37.9583" y1="54.6186" x2="11.3915" y2="8.6036">
	<stop  offset="0" style="stop-color:#6BA0D6"/>
	<stop  offset="0.6" style="stop-color:#91D4F5"/>
	<stop  offset="1" style="stop-color:#E5F4FC"/>
</linearGradient>
<path class="st1" d="M55.83,19.26c-0.79-4.12-2.87-7.64-6.07-10.64c-1.92-2.03-4.21-3.63-6.9-4.76l-0.02-0.01
	C34.88,0.26,26.99,0.4,19.17,4.23c0,0-0.04,0.02-0.04,0.02c-1.03,0.45-2,0.97-2.82,1.71c-1.43,0.8-2.58,1.87-3.65,3.03
	c0,0-0.07,0.08-0.07,0.08c-0.07,0.07-0.15,0.14-0.22,0.22c0,0-0.03,0.03-0.03,0.03c-0.18,0.22-0.37,0.43-0.55,0.65
	c-0.06,0.07-0.12,0.15-0.18,0.22c-0.09,0.1-0.18,0.21-0.28,0.31c0,0,0,0,0,0c-0.25,0.3-0.5,0.61-0.75,0.91l-0.02,0.04
	c-1,1.26-1.83,2.59-2.37,4.07c-0.04,0.1-0.07,0.21-0.11,0.31C6.97,18,6.48,20.31,6.37,22.69c-0.02,0.44-0.05,0.88-0.05,1.32
	c0,14.1,0,28.2,0,42.3c0,2.88,0,2.88,3.23,2.48c0.43-0.06,0.87-0.09,1.3-0.18c7.48-1.53,12.91-5.33,16.05-11.69
	c0.53-1.2,1.27-2.32,1.4-3.64c0.07-0.31,0.02-0.12,0.06-0.34c0.31-1.78,0.63-3.5,0.57-5.29c0-0.5-0.04-0.56-0.05-0.92
	c0-0.04,0-0.07,0-0.11c0.79,0.07,1.58,0.11,2.39,0.11c4.58,0,8.85-1.17,12.49-3.21c5.17-2.56,8.95-6.54,11.18-12.08
	C56.61,27.46,56.95,23.41,55.83,19.26z M36.74,36.26c-4.32,0-7.82-3.15-7.82-7.04c0-3.89,3.5-7.04,7.82-7.04s7.82,3.15,7.82,7.04
	C44.57,33.11,41.06,36.26,36.74,36.26z"/>
</svg>
